<svg version="1.2" baseProfile="tiny-ps" xmlns="http://www.w3.org/2000/svg" viewBox="0 0 1200 1200" width="1200" height="1200">
	<title>app-icon-ai</title>
	<style>
		tspan { white-space:pre }
		.shp0 { fill: #231f20 } 
	</style>
	<g id="Layer 2">
		<g id="&lt;Group&gt;">
			<path id="&lt;Path&gt;" class="shp0" d="M371.12 341.14L298.44 341.14C283.45 341.14 271.19 360.02 271.19 383.09L271.19 816.52C271.19 839.59 283.45 858.46 298.44 858.46L371.12 858.46C386.11 858.46 398.37 839.59 398.37 816.52L398.37 383.09C398.37 360.02 386.11 341.14 371.12 341.14Z" />
			<path id="&lt;Path&gt;" class="shp0" d="M226.9 428.53L192.84 428.53C177.85 428.53 165.58 447.4 165.58 470.47L165.58 729.13C165.58 752.2 177.85 771.08 192.84 771.08L226.9 771.08C241.89 771.08 254.16 752.2 254.16 729.13L254.16 470.47C254.16 447.4 241.89 428.53 226.9 428.53Z" />
			<path id="&lt;Path&gt;" class="shp0" d="M89.5 599.8C89.5 649.99 117.97 690.68 153.09 690.68L153.09 508.92C117.97 508.92 89.5 549.61 89.5 599.8Z" />
			<path id="&lt;Path&gt;" class="shp0" d="M919.64 341.14L848.03 341.14C833.26 341.14 821.18 360.02 821.18 383.09L821.18 816.52C821.18 839.59 833.26 858.46 848.03 858.46L919.64 858.46C934.41 858.46 946.49 839.59 946.49 816.52L946.49 383.09C946.49 360.02 934.41 341.14 919.64 341.14Z" />
			<path id="&lt;Path&gt;" class="shp0" d="M1023.69 428.53L990.13 428.53C975.36 428.53 963.27 447.4 963.27 470.47L963.27 729.13C963.27 752.2 975.36 771.08 990.13 771.08L1023.69 771.08C1038.46 771.08 1050.55 752.2 1050.55 729.13L1050.55 470.47C1050.55 447.4 1038.46 428.53 1023.69 428.53Z" />
			<path id="&lt;Path&gt;" class="shp0" d="M1062.85 508.92L1062.85 690.68C1097.46 690.68 1125.51 649.99 1125.51 599.8C1125.51 549.61 1097.46 508.92 1062.85 508.92Z" />
			<path id="&lt;Path&gt;" class="shp0" d="M408.5 662.72L808.52 662.72L808.52 522.9L408.5 522.9L408.5 662.72Z" />
		</g>
	</g>
</svg>